<svg width="100%" height="100%" viewBox="0 0 393 465" style="fill-rule:evenodd;clip-rule:evenodd;stroke-linejoin:round;stroke-miterlimit:2;">
    <g transform="matrix(1,0,0,1,-12740,-8258.87)">
        <g transform="matrix(0.0792111,0,0,0.132468,12740,8258.87)">
            <rect x="0" y="0" width="4960.63" height="3507.87" style="fill:none;"/>
            <g>
                <g transform="matrix(12.6245,0,0,7.54896,-160836,-62479.3)">
                    <path d="M12911.6,8382.22L12847.2,8382.22L12934,8304.87L13020.9,8382.22L12953.6,8382.22C12953.5,8403.46 12953.3,8460.56 12953.6,8489.75C12954.5,8586.73 12957.4,8608.27 12984.9,8616.25C12984.9,8616.25 13006.8,8616.06 12984.9,8616.25C12935.7,8616.65 12914.3,8612.47 12912.5,8528.04C12911.8,8496.22 12911.7,8404.14 12911.6,8382.22ZM12869.5,8452.12L12869.5,8481.29C12869.5,8481.29 12822.2,8481.29 12822.2,8481.29C12822.2,8529.96 12822.2,8683.73 12822.2,8683.73C12822.2,8683.73 13050.6,8683.73 13050.6,8683.73L13050.6,8481.29L12997.4,8481.29L12997.4,8452.12L13079.8,8452.12L13079.8,8712.9L12793.1,8712.9L12793.1,8452.12L12869.5,8452.12Z"/>
                </g>
            </g>
        </g>
    </g>
</svg>
