<svg width="100%" height="100%" viewBox="0 0 2191 2192">
    <g transform="matrix(1,0,0,1,-554.828,-179.1)">
        <path d="M564.017,1132.63C572.784,1065.15 587.696,999.585 608.175,936.517C662.157,770.275 754.826,621.402 875.556,500.556C1073.79,302.131 1347.64,179.26 1650,179.1C1952.37,179.245 2226.23,302.105 2424.48,500.524C2545.22,621.372 2637.9,770.248 2691.88,936.498C2726.51,1043.12 2745.22,1156.89 2745.19,1275C2745.18,1363.03 2734.76,1448.65 2715.11,1530.7C2667.31,1730.33 2564.82,1908.82 2424.36,2049.36C2303.6,2170.19 2154.78,2262.99 1988.56,2317.07C1881.93,2351.76 1768.14,2370.52 1650,2370.55C1561.94,2370.54 1476.29,2360.13 1394.22,2340.46C1194.56,2292.6 1016.1,2189.96 875.603,2049.4C735.131,1908.85 632.633,1730.36 584.852,1530.71C565.215,1448.66 554.814,1363.03 554.829,1275C554.829,1264.35 554.981,1253.74 555.285,1243.15C556.301,1207.56 559.019,1172.39 563.366,1137.73C563.579,1136.03 563.795,1134.33 564.017,1132.63ZM555.285,1243.15C554.982,1253.74 554.83,1264.35 554.831,1275C554.845,1363.03 565.263,1448.65 584.934,1530.69C632.79,1730.27 735.38,1908.66 875.896,2049.1C1016.39,2189.52 1194.82,2291.98 1394.39,2339.76C1476.41,2359.39 1562,2369.8 1650,2369.8C1768.06,2369.82 1881.79,2351.11 1988.37,2316.49C2154.55,2262.51 2303.37,2169.86 2424.14,2049.14C2564.66,1908.7 2667.27,1730.29 2715.1,1530.7C2734.77,1448.65 2745.16,1363.03 2745.15,1275C2745.12,1156.91 2726.37,1043.15 2691.67,936.566C2637.6,770.418 2544.83,621.668 2424.03,500.975C2225.8,302.919 1952.08,180.414 1650,180.559C1347.92,180.399 1074.19,302.892 875.943,500.943C755.132,621.638 662.344,770.39 608.266,936.547C587.746,999.598 572.8,1065.16 564.017,1132.63C563.796,1134.33 563.579,1136.03 563.367,1137.73C559.028,1172.39 556.305,1207.56 555.285,1243.15ZM627.056,965.035C646.24,901.457 671.033,840.701 700.789,783.236C779.223,631.761 892.139,503.164 1027.62,406.017C1250.07,246.498 1533.32,171.764 1824.49,219.723L1824.49,219.724C2115.61,268.028 2359.74,429.951 2519.02,652.585C2616.03,788.174 2681.56,946.28 2707.06,1114.95C2723.41,1223.12 2723.31,1335.64 2704.47,1449.36C2690.45,1534.12 2666.78,1614.89 2634.8,1690.76C2557,1875.37 2429.92,2030.91 2272.3,2143.87C2136.79,2240.99 1978.74,2306.66 1810.08,2332.28C1701.89,2348.71 1589.33,2348.66 1475.58,2329.88C1390.78,2315.85 1309.97,2292.19 1234.08,2260.18C1049.46,2182.3 893.968,2055.06 781.079,1897.34C668.21,1739.65 597.948,1551.46 583.735,1351.63C577.894,1269.5 581.513,1185.4 595.544,1100.65C597.24,1090.39 599.077,1080.19 601.054,1070.06C607.698,1035.95 615.913,1002.52 625.619,969.834C626.094,968.234 626.573,966.636 627.056,965.035ZM601.054,1070.06C599.078,1080.19 597.242,1090.39 595.547,1100.65C581.548,1185.41 577.949,1269.5 583.832,1351.62C598.142,1551.4 668.526,1739.48 781.463,1897.07C894.382,2054.62 1049.86,2181.66 1234.4,2259.42C1310.24,2291.38 1390.99,2315.03 1475.72,2329.03C1589.38,2347.85 1701.85,2347.95 1809.98,2331.59C1978.57,2306.08 2136.6,2240.57 2272.1,2143.59C2429.76,2030.74 2556.96,1875.32 2634.8,1690.76C2666.79,1614.9 2690.43,1534.11 2704.44,1449.35C2723.2,1335.64 2723.25,1223.13 2706.81,1114.99C2681.18,946.415 2615.53,788.436 2518.43,653.009C2359.1,430.788 2115.07,269.293 1824.22,221.368L1824.22,221.368C1533.42,173.099 1250.38,247.43 1027.98,406.526C892.44,503.486 779.412,631.925 700.886,783.286C671.086,840.725 646.256,901.466 627.056,965.035C626.573,966.635 626.095,968.234 625.62,969.834C615.923,1002.52 607.702,1035.95 601.054,1070.06ZM737.965,872.251C762.922,815.557 792.754,762.111 826.808,712.275C916.572,580.908 1035.67,474.627 1172.1,400.018C1396.12,277.511 1666.82,240.382 1930.96,317.744L1930.96,317.745C2195.03,395.401 2402.74,572.936 2525.02,797.079C2599.49,933.59 2642.28,1087.39 2646.8,1246.44C2649.7,1348.44 2636.88,1452.61 2606.57,1555.76C2584,1632.65 2552.94,1704.76 2514.75,1771.38C2421.82,1933.5 2286.56,2063.12 2127.84,2149.87C1991.39,2224.46 1837.62,2267.37 1678.57,2272C1576.54,2274.97 1472.33,2262.18 1369.14,2231.92C1292.22,2209.34 1220.08,2178.29 1153.44,2140.06C991.313,2047.07 861.751,1911.67 775.078,1752.87C688.418,1594.09 644.657,1411.91 654.11,1225.28C657.995,1148.58 670.861,1071.13 693.443,994.242C696.174,984.94 699.028,975.708 702.006,966.544C712.017,935.719 723.407,905.697 736.091,876.532C736.712,875.104 737.336,873.678 737.965,872.251ZM702.006,966.544C699.029,975.708 696.175,984.941 693.445,994.243C670.891,1071.14 658.042,1148.59 654.194,1225.29C644.832,1411.87 688.71,1593.99 775.44,1752.67C862.157,1911.33 991.734,2046.55 1153.8,2139.43C1220.4,2177.61 1292.49,2208.64 1369.35,2231.2C1472.46,2261.48 1576.59,2274.3 1678.55,2271.39C1837.53,2266.85 1991.26,2224.07 2127.7,2149.61C2286.44,2062.97 2421.79,1933.45 2514.74,1771.38C2552.95,1704.77 2583.98,1632.64 2606.54,1555.75C2636.78,1452.6 2649.56,1348.43 2646.58,1246.44C2641.94,1087.47 2599.04,933.765 2524.46,797.385C2402.09,573.595 2194.42,396.442 1930.55,319.144L1930.55,319.144C1666.76,241.552 1396.28,278.353 1172.36,400.5C1035.9,474.939 916.719,581.07 826.887,712.329C792.798,762.138 762.936,815.566 737.965,872.251C737.337,873.677 736.713,875.104 736.093,876.532C723.415,905.7 712.021,935.72 702.006,966.544ZM723.766,1329.91C720.286,1272.37 722.221,1215.44 729.185,1159.7C747.542,1012.76 800.855,874.098 881.991,754.265C1015.23,557.483 1223.46,411.484 1475.02,363.031L1475.02,363.031C1726.65,314.918 1974.14,373.464 2170.76,506.949C2290.5,588.241 2391.37,697.327 2462.81,827.042C2508.63,910.231 2542.35,1001.9 2561.17,1100.17C2575.22,1173.41 2580.21,1246.31 2576.96,1317.71C2569.06,1491.43 2512.31,1656.3 2417.89,1795.66C2336.72,1915.48 2227.73,2016.46 2098.07,2088.01C2014.88,2133.91 1923.2,2167.68 1824.9,2186.57C1751.63,2200.63 1678.7,2205.64 1607.27,2202.37C1433.51,2194.41 1268.64,2137.49 1129.31,2042.94C990.006,1948.42 876.248,1816.27 804.634,1657.78C775.204,1592.65 752.885,1523.07 738.848,1449.82C737.148,1440.96 735.581,1432.11 734.145,1423.26C729.308,1393.48 725.954,1363.79 724.038,1334.25C723.944,1332.81 723.854,1331.36 723.766,1329.91ZM734.145,1423.26C735.582,1432.11 737.15,1440.96 738.85,1449.82C752.919,1523.06 775.256,1592.63 804.722,1657.74C876.406,1816.13 990.246,1948.16 1129.57,2042.55C1268.87,2136.93 1433.66,2193.66 1607.31,2201.54C1678.67,2204.78 1751.54,2199.78 1824.74,2185.73C1922.96,2166.91 2014.59,2133.2 2097.73,2087.39C2227.36,2015.98 2336.39,1915.15 2417.61,1795.46C2512.11,1656.2 2569.01,1491.4 2576.95,1317.71C2580.22,1246.31 2575.19,1173.42 2561.13,1100.18C2542.24,1001.94 2508.47,910.298 2462.59,827.164C2391.07,697.583 2290.13,588.658 2170.36,507.552C1973.83,374.471 1726.58,316.293 1475.33,364.668L1475.33,364.668C1224.02,412.703 1015.84,558.252 882.51,754.616C801.249,874.296 747.777,1012.85 729.293,1159.71C722.279,1215.44 720.305,1272.37 723.766,1329.91C723.854,1331.36 723.945,1332.81 724.039,1334.25C725.964,1363.79 729.312,1393.48 734.145,1423.26ZM757.097,1157.95C764.306,1102.46 776.566,1048.55 793.403,996.697C837.786,860.01 913.976,737.603 1013.24,638.24C1176.23,475.088 1401.39,374.056 1650,373.919C1898.61,374.042 2123.79,475.065 2286.79,638.213C2386.06,737.577 2462.26,859.986 2506.65,996.68C2535.11,1084.35 2550.5,1177.89 2550.47,1275C2550.47,1347.38 2541.89,1417.78 2525.74,1485.24C2486.44,1649.38 2402.18,1796.13 2286.69,1911.69C2187.39,2011.03 2065.04,2087.34 1928.37,2131.81C1840.7,2160.34 1747.13,2175.76 1650,2175.78C1577.59,2175.78 1507.17,2167.22 1439.69,2151.04C1275.53,2111.69 1128.8,2027.3 1013.28,1911.72C897.784,1796.16 813.511,1649.4 774.226,1485.24C758.082,1417.78 749.531,1347.38 749.543,1275C749.543,1266.24 749.668,1257.52 749.918,1248.82C750.754,1219.55 752.988,1190.64 756.562,1162.13C756.737,1160.74 756.915,1159.34 757.097,1157.95ZM749.918,1248.82C749.669,1257.52 749.544,1266.24 749.544,1275C749.557,1347.38 758.122,1417.78 774.297,1485.23C813.646,1649.33 897.998,1796 1013.53,1911.47C1129.05,2026.92 1275.75,2111.16 1439.84,2150.44C1507.27,2166.58 1577.64,2175.14 1650,2175.13C1747.07,2175.16 1840.58,2159.77 1928.21,2131.31C2064.84,2086.93 2187.2,2010.75 2286.5,1911.5C2402.04,1796.03 2486.41,1649.35 2525.74,1485.24C2541.9,1417.78 2550.45,1347.38 2550.44,1275C2550.41,1177.9 2534.99,1084.38 2506.47,996.739C2462.01,860.132 2385.72,737.832 2286.4,638.599C2123.41,475.763 1898.36,375.045 1650,375.169C1401.63,375.032 1176.57,475.74 1013.57,638.572C914.239,737.805 837.946,860.108 793.481,996.722C776.608,1048.56 764.319,1102.47 757.097,1157.95C756.916,1159.34 756.738,1160.74 756.563,1162.13C752.995,1190.64 750.757,1219.55 749.918,1248.82ZM855.722,924.251C877.455,874.876 903.433,828.33 933.088,784.927C1011.26,670.514 1114.98,577.946 1233.79,512.959C1428.88,406.246 1664.65,373.89 1894.71,441.249L1894.71,441.249C2124.7,508.902 2305.59,663.539 2412.08,858.766C2476.93,977.66 2514.18,1111.61 2518.12,1250.13C2520.64,1338.96 2509.47,1429.68 2483.07,1519.51C2463.41,1586.48 2436.36,1649.27 2403.1,1707.3C2322.17,1848.48 2204.38,1961.38 2066.15,2036.93C1947.32,2101.89 1813.4,2139.27 1674.88,2143.31C1586.02,2145.9 1495.26,2134.77 1405.39,2108.41C1338.4,2088.74 1275.56,2061.7 1217.53,2028.41C1076.33,1947.42 963.498,1829.49 888.019,1691.18C812.553,1552.9 774.449,1394.24 782.687,1231.7C786.073,1164.9 797.279,1097.45 816.948,1030.49C819.325,1022.39 821.812,1014.35 824.405,1006.37C833.123,979.525 843.042,953.379 854.089,927.979C854.63,926.736 855.174,925.494 855.722,924.251ZM824.405,1006.37C821.813,1014.35 819.327,1022.39 816.95,1030.49C797.309,1097.46 786.121,1164.91 782.772,1231.7C774.624,1394.2 812.845,1552.79 888.381,1690.98C963.904,1829.15 1076.75,1946.9 1217.89,2027.78C1275.89,2061.02 1338.66,2088.05 1405.6,2107.69C1495.39,2134.07 1586.07,2145.23 1674.86,2142.7C1813.31,2138.75 1947.19,2101.51 2066.01,2036.67C2204.26,1961.22 2322.14,1848.43 2403.09,1707.29C2436.37,1649.28 2463.39,1586.47 2483.04,1519.5C2509.37,1429.67 2520.49,1338.95 2517.89,1250.13C2513.84,1111.68 2476.47,977.834 2411.52,859.071C2304.94,664.198 2124.09,509.943 1894.3,442.648L1894.3,442.648C1664.59,375.06 1429.05,407.088 1234.05,513.441C1115.2,578.258 1011.4,670.677 933.167,784.981C903.477,828.357 877.469,874.886 855.722,924.251C855.174,925.494 854.631,926.736 854.091,927.979C843.05,953.382 833.127,979.526 824.405,1006.37ZM915.365,950.589C935.466,904.922 959.492,861.87 986.919,821.725C1059.22,715.9 1155.14,630.277 1265.03,570.164C1445.48,471.45 1663.55,441.511 1876.35,503.804L1876.35,503.804C2089.07,566.39 2256.39,709.43 2354.88,890.01C2414.85,999.981 2449.3,1123.87 2452.94,1251.99C2455.27,1334.16 2444.93,1418.07 2420.51,1501.15C2402.33,1563.09 2377.31,1621.17 2346.55,1674.83C2271.7,1805.42 2162.75,1909.84 2034.91,1979.73C1925,2039.82 1801.13,2074.39 1673.01,2078.13C1590.82,2080.53 1506.88,2070.23 1423.75,2045.86C1361.79,2027.67 1303.67,2002.65 1249.99,1971.86C1119.39,1896.94 1015.03,1787.86 945.223,1659.94C875.427,1532.04 840.189,1385.29 847.812,1234.95C850.944,1173.17 861.31,1110.78 879.502,1048.85C881.702,1041.36 884.001,1033.92 886.4,1026.54C894.464,1001.71 903.637,977.53 913.855,954.037C914.355,952.887 914.858,951.739 915.365,950.589ZM886.4,1026.54C884.002,1033.92 881.704,1041.36 879.504,1048.85C861.34,1110.79 850.992,1173.18 847.896,1234.95C840.364,1385.25 875.719,1531.93 945.586,1659.74C1015.44,1787.52 1119.81,1896.42 1250.35,1971.23C1303.99,2001.98 1362.05,2026.97 1423.96,2045.14C1507.01,2069.54 1590.87,2079.86 1673,2077.52C1801.04,2073.87 1924.87,2039.43 2034.77,1979.46C2162.63,1909.68 2271.67,1805.37 2346.54,1674.83C2377.32,1621.17 2402.31,1563.08 2420.48,1501.14C2444.84,1418.05 2455.12,1334.15 2452.72,1252C2448.96,1123.95 2414.39,1000.15 2354.32,890.315C2255.74,710.089 2088.47,567.431 1875.94,505.203L1875.94,505.203C1663.5,442.682 1445.65,472.293 1265.29,570.645C1155.37,630.589 1059.36,716.062 986.998,821.779C959.536,861.897 935.479,904.932 915.365,950.589C914.859,951.739 914.356,952.887 913.856,954.038C903.646,977.533 894.467,1001.71 886.4,1026.54ZM972.252,975.71C990.796,933.579 1012.96,893.86 1038.26,856.822C1104.96,759.187 1193.45,680.189 1294.83,624.725C1461.31,533.641 1662.5,506.008 1858.84,563.468L1858.84,563.468C2055.1,621.222 2209.45,753.2 2300.31,919.81C2355.64,1021.27 2387.42,1135.57 2390.77,1253.77C2392.92,1329.58 2383.38,1406.99 2360.85,1483.64C2344.07,1540.78 2320.99,1594.36 2292.61,1643.87C2223.56,1764.35 2123.05,1860.69 2005.11,1925.17C1903.71,1980.61 1789.43,2012.51 1671.23,2015.97C1595.4,2018.18 1517.96,2008.68 1441.26,1986.19C1384.09,1969.41 1330.47,1946.33 1280.95,1917.92C1160.46,1848.8 1064.19,1748.16 999.784,1630.14C935.395,1512.14 902.89,1376.75 909.926,1238.05C912.818,1181.06 922.382,1123.5 939.166,1066.36C941.195,1059.45 943.317,1052.59 945.53,1045.78C952.969,1022.87 961.432,1000.56 970.859,978.891C971.321,977.83 971.784,976.771 972.252,975.71ZM945.53,1045.78C943.318,1052.59 941.197,1059.45 939.168,1066.37C922.412,1123.51 912.866,1181.06 910.011,1238.06C903.066,1376.71 935.687,1512.03 1000.15,1629.94C1064.59,1747.82 1160.89,1848.28 1281.31,1917.29C1330.8,1945.65 1384.36,1968.71 1441.47,1985.47C1518.08,2007.98 1595.45,2017.51 1671.21,2015.35C1789.35,2011.99 1903.58,1980.22 2004.97,1924.9C2122.93,1860.53 2223.53,1764.3 2292.61,1643.87C2321,1594.37 2344.05,1540.77 2360.82,1483.63C2383.28,1406.97 2392.77,1329.57 2390.55,1253.78C2387.08,1135.65 2355.18,1021.45 2299.76,920.115C2208.81,753.858 2054.49,622.262 1858.43,564.867L1858.43,564.867C1662.45,507.178 1461.48,534.483 1295.09,625.206C1193.68,680.501 1105.11,759.35 1038.34,856.876C1013,893.887 990.809,933.588 972.252,975.71C971.785,976.77 971.321,977.83 970.86,978.891C961.44,1000.57 952.972,1022.88 945.53,1045.78ZM945.756,1182.68C951.441,1138.92 961.11,1096.4 974.389,1055.5C1009.39,947.69 1069.48,851.144 1147.77,772.771C1276.32,644.084 1453.92,564.392 1650,564.277C1846.09,564.38 2023.69,644.065 2152.25,772.749C2230.55,851.122 2290.65,947.67 2325.65,1055.48C2348.1,1124.63 2360.24,1198.41 2360.21,1275C2360.21,1332.09 2353.45,1387.61 2340.71,1440.82C2309.71,1570.28 2243.26,1686.02 2152.17,1777.17C2073.85,1855.53 1977.35,1915.71 1869.56,1950.79C1800.41,1973.29 1726.61,1985.45 1650,1985.47C1592.89,1985.47 1537.35,1978.72 1484.12,1965.96C1354.64,1934.92 1238.91,1868.36 1147.81,1777.19C1056.71,1686.05 990.247,1570.3 959.264,1440.82C946.531,1387.61 939.787,1332.09 939.797,1275C939.797,1268.09 939.897,1261.21 940.094,1254.35C940.752,1231.27 942.514,1208.46 945.334,1185.98C945.472,1184.88 945.612,1183.78 945.756,1182.68ZM940.094,1254.35C939.897,1261.21 939.799,1268.09 939.799,1275C939.809,1332.09 946.565,1387.61 959.323,1440.81C990.36,1570.23 1056.89,1685.92 1148.01,1776.99C1239.12,1868.04 1354.83,1934.48 1484.25,1965.45C1537.43,1978.19 1592.93,1984.94 1650,1984.93C1726.56,1984.95 1800.31,1972.82 1869.42,1950.37C1977.19,1915.37 2073.69,1855.29 2152.01,1777.01C2243.14,1685.94 2309.68,1570.25 2340.7,1440.82C2353.45,1387.61 2360.19,1332.09 2360.19,1275C2360.17,1198.42 2348,1124.65 2325.5,1055.53C2290.43,947.791 2230.27,851.334 2151.93,773.071C2023.38,644.647 1845.88,565.216 1650,565.319C1454.11,565.205 1276.61,644.628 1148.05,773.048C1069.7,851.312 1009.53,947.772 974.454,1055.52C961.145,1096.41 951.452,1138.92 945.756,1182.68C945.613,1183.78 945.472,1184.88 945.335,1185.98C942.521,1208.46 940.755,1231.27 940.094,1254.35ZM1040.06,1005.65C1056.75,967.737 1076.69,931.992 1099.46,898.658C1159.48,810.786 1239.12,739.684 1330.35,689.76C1480.18,607.771 1661.26,582.886 1837.97,634.586L1837.97,634.586C2014.6,686.579 2153.51,805.372 2235.28,955.331C2285.07,1046.65 2313.66,1149.52 2316.67,1255.9C2318.6,1324.12 2310.01,1393.78 2289.73,1462.77C2274.63,1514.19 2253.86,1562.41 2228.32,1606.97C2166.17,1715.39 2075.73,1802.1 1969.59,1860.13C1878.33,1910.03 1775.49,1938.75 1669.11,1941.86C1600.86,1943.86 1531.16,1935.31 1462.13,1915.08C1410.68,1899.97 1362.43,1879.2 1317.85,1853.63C1209.42,1791.42 1122.78,1700.84 1064.82,1594.62C1006.88,1488.42 977.629,1366.57 983.966,1241.75C986.57,1190.45 995.178,1138.66 1010.28,1087.24C1012.11,1081.02 1014.02,1074.84 1016.01,1068.71C1022.71,1048.1 1030.32,1028.02 1038.81,1008.52C1039.22,1007.56 1039.64,1006.61 1040.06,1005.65ZM1016.01,1068.71C1014.02,1074.84 1012.11,1081.02 1010.29,1087.24C995.208,1138.66 986.618,1190.46 984.05,1241.75C977.804,1366.53 1007.17,1488.31 1065.18,1594.42C1123.18,1700.5 1209.84,1790.9 1318.21,1853C1362.75,1878.52 1410.95,1899.27 1462.34,1914.35C1531.29,1934.61 1600.91,1943.19 1669.09,1941.25C1775.4,1938.23 1878.2,1909.65 1969.44,1859.87C2075.61,1801.94 2166.15,1715.34 2228.31,1606.96C2253.87,1562.41 2274.61,1514.18 2289.7,1462.76C2309.91,1393.77 2318.45,1324.11 2316.45,1255.9C2313.32,1149.6 2284.61,1046.82 2234.72,955.636C2152.87,806.031 2013.99,687.62 1837.56,635.985L1837.56,635.985C1661.2,584.057 1480.35,608.613 1330.62,690.241C1239.35,739.996 1159.63,810.949 1099.54,898.712C1076.74,932.018 1056.76,967.747 1040.06,1005.65C1039.64,1006.61 1039.22,1007.56 1038.81,1008.52C1030.33,1028.02 1022.71,1048.1 1016.01,1068.71ZM1057.99,1197.39C1062.76,1160.6 1070.88,1124.86 1082.04,1090.47C1111.44,999.828 1161.93,918.644 1227.73,852.731C1335.79,744.477 1485.11,677.409 1650,677.249C1814.9,677.394 1964.23,744.45 2072.3,852.7C2138.11,918.613 2188.61,999.801 2218.02,1090.45C2236.88,1148.59 2247.07,1210.61 2247.04,1275C2247.03,1322.99 2241.34,1369.66 2230.64,1414.39C2204.59,1523.23 2148.74,1620.55 2072.18,1697.18C2006.35,1763.08 1925.23,1813.7 1834.61,1843.21C1776.47,1862.14 1714.42,1872.37 1650,1872.4C1601.98,1872.39 1555.28,1866.72 1510.53,1855.99C1401.66,1829.87 1304.37,1773.88 1227.78,1697.22C1151.21,1620.58 1095.36,1523.25 1069.33,1414.4C1058.63,1369.67 1052.96,1322.99 1052.98,1275C1052.98,1269.19 1053.06,1263.41 1053.23,1257.64C1053.78,1238.24 1055.26,1219.07 1057.63,1200.17C1057.75,1199.24 1057.87,1198.32 1057.99,1197.39ZM1053.23,1257.64C1053.06,1263.41 1052.98,1269.19 1052.98,1275C1052.99,1322.99 1058.68,1369.66 1069.41,1414.38C1095.51,1523.17 1151.46,1620.39 1228.07,1696.93C1304.66,1773.44 1401.92,1829.26 1510.69,1855.28C1555.39,1865.98 1602.04,1871.65 1650,1871.65C1714.35,1871.67 1776.33,1861.48 1834.42,1842.62C1925,1813.22 2006.12,1762.75 2071.97,1696.97C2148.59,1620.43 2204.55,1523.19 2230.63,1414.39C2241.35,1369.67 2247.01,1322.99 2247.01,1275C2246.97,1210.62 2236.74,1148.62 2217.81,1090.52C2188.31,999.97 2137.72,918.91 2071.85,853.15C1963.79,745.265 1814.61,678.563 1650,678.708C1485.39,678.548 1336.19,745.238 1228.12,853.119C1162.24,918.879 1111.63,999.943 1082.13,1090.5C1070.93,1124.87 1062.78,1160.61 1057.99,1197.39C1057.87,1198.32 1057.75,1199.24 1057.63,1200.17C1055.27,1219.07 1053.78,1238.24 1053.23,1257.64ZM1086.65,1335.86C1082.82,1300.86 1082.32,1266.08 1084.91,1231.87C1091.74,1141.69 1120.13,1055.51 1166.05,979.994C1241.49,855.948 1364.19,760.654 1516.25,723.583L1516.25,723.583C1668.39,686.849 1821.13,715.318 1945.03,791.009C2020.47,837.093 2085.2,900.684 2132.6,977.722C2162.99,1027.12 2186.26,1082.05 2200.62,1141.44C2211.36,1185.7 2216.55,1230.02 2216.68,1273.66C2217,1379.87 2187.29,1482.12 2133.83,1569.93C2087.86,1645.44 2024.37,1710.29 1947.4,1757.79C1898.01,1788.26 1843.07,1811.59 1783.66,1826.02C1739.36,1836.76 1695.01,1841.98 1651.34,1842.09C1545.08,1842.35 1442.82,1812.47 1355.03,1758.88C1267.28,1705.32 1194,1628.04 1145.65,1533.46C1125.78,1494.6 1110.11,1452.82 1099.39,1408.56C1098.09,1403.2 1096.88,1397.85 1095.74,1392.49C1091.91,1374.47 1088.98,1356.46 1086.94,1338.5C1086.84,1337.62 1086.75,1336.74 1086.65,1335.86ZM1095.74,1392.49C1096.88,1397.85 1098.1,1403.2 1099.39,1408.55C1110.14,1452.81 1125.83,1494.58 1145.73,1533.42C1194.15,1627.9 1267.5,1705.04 1355.28,1758.48C1443.03,1811.9 1545.2,1841.6 1651.33,1841.26C1694.95,1841.12 1739.23,1835.92 1783.45,1825.19C1842.8,1810.82 1897.67,1787.57 1947.03,1757.19C2023.99,1709.82 2087.52,1645.14 2133.53,1569.75C2187.08,1482.03 2216.95,1379.84 2216.67,1273.66C2216.56,1230.02 2211.33,1185.71 2200.59,1141.45C2186.15,1082.09 2162.84,1027.2 2132.38,977.855C2084.91,900.954 2020.11,837.528 1944.65,791.63C1820.87,716.339 1668.39,688.226 1516.64,725.203L1516.64,725.203C1364.81,761.844 1242.13,856.686 1166.59,980.32C1120.53,1055.69 1091.98,1141.77 1085.02,1231.88C1082.37,1266.08 1082.84,1300.86 1086.65,1335.86C1086.75,1336.74 1086.85,1337.62 1086.94,1338.5C1088.99,1356.46 1091.91,1374.47 1095.74,1392.49ZM1106.63,1203.77C1111.01,1170 1118.45,1137.19 1128.67,1105.62C1155.62,1022.39 1201.92,947.834 1262.28,887.276C1361.45,787.769 1498.55,726.063 1650,725.788C1801.46,726.036 1938.58,787.723 2037.78,887.222C2098.15,947.781 2144.47,1022.35 2171.43,1105.59C2188.71,1158.96 2198.05,1215.9 2197.99,1275C2197.98,1319.05 2192.75,1361.88 2182.93,1402.94C2159.03,1502.85 2107.82,1592.2 2037.58,1662.58C1977.16,1723.1 1902.71,1769.62 1819.51,1796.75C1766.13,1814.15 1709.15,1823.57 1650,1823.61C1605.9,1823.6 1563.01,1818.39 1521.92,1808.52C1421.97,1784.52 1332.65,1733.06 1262.36,1662.64C1192.1,1592.26 1140.87,1502.89 1117.01,1402.95C1107.21,1361.89 1102.01,1319.05 1102.04,1275C1102.04,1269.67 1102.11,1264.36 1102.27,1259.07C1102.77,1241.26 1104.13,1223.66 1106.31,1206.32C1106.41,1205.47 1106.52,1204.62 1106.63,1203.77ZM1102.27,1259.07C1102.12,1264.36 1102.04,1269.67 1102.04,1275C1102.06,1319.04 1107.29,1361.88 1117.15,1402.92C1141.14,1502.74 1192.53,1591.94 1262.86,1662.14C1333.15,1732.31 1422.41,1783.47 1522.21,1807.32C1563.22,1817.12 1606,1822.33 1650,1822.32C1709.03,1822.36 1765.89,1813.02 1819.19,1795.75C1902.31,1768.81 1976.77,1722.54 2037.21,1662.21C2107.55,1592 2158.96,1502.78 2182.91,1402.93C2192.76,1361.89 2197.94,1319.05 2197.93,1275C2197.88,1215.92 2188.47,1159.02 2171.07,1105.71C2143.96,1022.64 2097.48,948.29 2037.01,887.994C1937.83,789.119 1800.97,728.041 1650,728.288C1499.02,728.014 1362.14,789.073 1262.94,887.941C1202.44,948.237 1155.95,1022.59 1128.83,1105.67C1118.54,1137.21 1111.04,1170.01 1106.63,1203.77C1106.52,1204.62 1106.42,1205.47 1106.31,1206.32C1104.14,1223.66 1102.78,1241.26 1102.27,1259.07ZM1162.33,1211.07C1166.26,1180.76 1172.94,1151.32 1182.13,1122.99C1206.34,1048.31 1247.91,981.414 1302.09,927.094C1391.11,837.86 1514.13,782.553 1650,782.37C1785.88,782.535 1908.91,837.83 1997.94,927.058C2052.14,981.379 2093.73,1048.28 2117.94,1122.97C2133.47,1170.86 2141.85,1221.96 2141.82,1275C2141.81,1314.53 2137.12,1352.98 2128.3,1389.82C2106.85,1479.49 2060.87,1559.66 1997.81,1622.81C1943.58,1677.11 1876.76,1718.83 1802.1,1743.15C1754.2,1758.76 1703.08,1767.2 1650,1767.23C1610.43,1767.22 1571.95,1762.55 1535.08,1753.7C1445.39,1732.18 1365.24,1686.03 1302.15,1622.85C1239.08,1559.7 1193.09,1479.51 1171.66,1389.83C1162.85,1352.99 1158.19,1314.53 1158.2,1275C1158.2,1270.22 1158.27,1265.45 1158.41,1260.7C1158.86,1244.72 1160.08,1228.92 1162.04,1213.36C1162.13,1212.59 1162.23,1211.83 1162.33,1211.07ZM1158.41,1260.7C1158.27,1265.45 1158.2,1270.22 1158.2,1275C1158.22,1314.53 1162.9,1352.98 1171.75,1389.81C1193.27,1479.41 1239.37,1559.49 1302.48,1622.52C1365.57,1685.52 1445.68,1731.47 1535.27,1752.89C1572.09,1761.7 1610.5,1766.37 1650,1766.37C1702.99,1766.39 1754.04,1758.01 1801.88,1742.49C1876.49,1718.29 1943.32,1676.73 1997.56,1622.56C2060.68,1559.53 2106.8,1479.44 2128.29,1389.82C2137.13,1352.98 2141.78,1314.53 2141.78,1275C2141.74,1221.97 2133.3,1170.9 2117.7,1123.05C2093.39,1048.47 2051.69,981.718 1997.43,927.573C1908.42,838.76 1785.55,783.872 1650,784.037C1514.44,783.854 1391.56,838.73 1302.54,927.537C1248.26,981.683 1206.55,1048.44 1182.23,1123.03C1173,1151.33 1166.28,1180.77 1162.33,1211.07C1162.23,1211.83 1162.13,1212.59 1162.04,1213.36C1160.09,1228.92 1158.87,1244.72 1158.41,1260.7ZM1241.43,1221.44C1244.73,1196.05 1250.33,1171.38 1258.01,1147.65C1278.29,1085.07 1313.1,1029.02 1358.49,983.493C1433.07,908.699 1536.14,862.329 1650,862.146C1763.87,862.311 1866.95,908.668 1941.54,983.457C1986.94,1028.98 2021.78,1085.04 2042.06,1147.62C2055.05,1187.75 2062.08,1230.56 2062.04,1275C2062.03,1308.12 2058.1,1340.33 2050.72,1371.2C2032.74,1446.32 1994.23,1513.5 1941.41,1566.41C1895.98,1611.91 1840,1646.88 1777.45,1667.27C1737.31,1680.35 1694.47,1687.42 1650,1687.45C1616.85,1687.44 1584.6,1683.53 1553.71,1676.11C1478.56,1658.07 1411.4,1619.39 1358.55,1566.45C1305.72,1513.54 1267.19,1446.35 1249.24,1371.21C1241.87,1340.34 1237.96,1308.12 1237.98,1275C1237.98,1270.99 1238.04,1267 1238.15,1263.02C1238.53,1249.63 1239.55,1236.4 1241.19,1223.36C1241.27,1222.72 1241.35,1222.08 1241.43,1221.44ZM1238.15,1263.02C1238.04,1267 1237.98,1270.99 1237.98,1275C1238,1308.12 1241.92,1340.33 1249.34,1371.19C1267.37,1446.25 1306,1513.32 1358.88,1566.12C1411.74,1618.89 1478.85,1657.37 1553.9,1675.31C1584.74,1682.68 1616.91,1686.6 1650,1686.59C1694.39,1686.62 1737.15,1679.6 1777.23,1666.6C1839.73,1646.34 1895.72,1611.53 1941.16,1566.16C1994.05,1513.36 2032.7,1446.27 2050.71,1371.2C2058.11,1340.33 2062.01,1308.12 2062,1275C2061.97,1230.58 2054.89,1187.79 2041.81,1147.7C2021.43,1085.23 1986.5,1029.32 1941.03,983.971C1866.46,909.599 1763.54,863.647 1650,863.812C1536.46,863.63 1433.52,909.569 1358.94,983.936C1313.45,1029.29 1278.5,1085.2 1258.12,1147.68C1250.38,1171.39 1244.75,1196.06 1241.43,1221.44C1241.35,1222.08 1241.27,1222.72 1241.19,1223.36C1239.56,1236.4 1238.54,1249.63 1238.15,1263.02ZM1293.39,1130.34C1302.35,1108.17 1313.22,1087.19 1325.75,1067.55C1358.81,1015.77 1403.47,973.297 1455.21,942.832C1540.23,892.77 1644.33,875.112 1747.31,901.745L1747.31,901.745C1850.19,928.76 1932.44,994.982 1982.22,1080.18C2012.51,1132.03 2030.77,1190.91 2034.34,1252.25C2036.62,1291.58 2032.88,1331.92 2022.37,1372.08C2014.56,1402.01 2003.41,1430.18 1989.47,1456.34C1955.53,1520 1904.91,1571.65 1844.71,1607.03C1792.94,1637.46 1734.1,1655.89 1672.76,1659.59C1633.4,1661.96 1593.01,1658.27 1552.81,1647.82C1522.84,1640 1494.62,1628.86 1468.44,1614.87C1404.77,1580.85 1353.2,1530.06 1317.91,1469.75C1282.64,1409.47 1263.66,1339.66 1265.16,1267.53C1265.77,1237.89 1269.83,1207.86 1277.65,1177.93C1278.6,1174.31 1279.59,1170.71 1280.63,1167.14C1284.13,1155.13 1288.17,1143.41 1292.72,1132.01C1292.94,1131.46 1293.17,1130.9 1293.39,1130.34ZM1280.63,1167.14C1279.59,1170.71 1278.6,1174.31 1277.65,1177.93C1269.87,1207.86 1265.83,1237.89 1265.26,1267.53C1263.89,1339.61 1283.01,1409.32 1318.37,1469.48C1353.7,1529.61 1405.29,1580.17 1468.88,1614.05C1495.01,1627.97 1523.16,1639.09 1553.05,1646.88C1593.15,1657.37 1633.44,1661.1 1672.71,1658.8C1733.97,1655.22 1792.76,1636.98 1844.51,1606.69C1904.75,1571.45 1955.49,1519.94 1989.46,1456.34C2003.42,1430.19 2014.53,1402 2022.33,1372.07C2032.75,1331.91 2036.43,1291.58 2034.05,1252.27C2030.34,1191.02 2011.93,1132.28 1981.51,1080.6C1931.63,995.854 1849.45,930.121 1746.83,903.56L1746.83,903.56C1644.31,876.619 1540.48,893.846 1455.57,943.44C1403.78,973.689 1359,1015.97 1325.86,1067.62C1313.28,1087.22 1302.37,1108.18 1293.39,1130.34C1293.17,1130.9 1292.95,1131.46 1292.72,1132.01C1288.18,1143.42 1284.13,1155.13 1280.63,1167.14Z" style="fill:rgb(170,170,170);"/>
    </g>
</svg>
